<?xml version="1.0" encoding="UTF-8" standalone="no"?>
<svg
   width="277.30225"
   height="71.679688"
   viewBox="0 0 277.30225 71.679688"
   fill="none"
   version="1.1"
   id="svg1"
   sodipodi:docname="logo.svg"
   inkscape:version="1.4.3 (fcd0343856, 2026-01-01)"
   xmlns:inkscape="http://www.inkscape.org/namespaces/inkscape"
   xmlns:sodipodi="http://sodipodi.sourceforge.net/DTD/sodipodi-0.dtd"
   xmlns="http://www.w3.org/2000/svg"
   xmlns:svg="http://www.w3.org/2000/svg">
  <defs
     id="defs1" />
  <sodipodi:namedview
     id="namedview1"
     pagecolor="#505050"
     bordercolor="#eeeeee"
     borderopacity="1"
     inkscape:showpageshadow="0"
     inkscape:pageopacity="0"
     inkscape:pagecheckerboard="0"
     inkscape:deskcolor="#505050"
     inkscape:zoom="3.1887975"
     inkscape:cx="138.76704"
     inkscape:cy="35.906953"
     inkscape:window-width="1920"
     inkscape:window-height="977"
     inkscape:window-x="0"
     inkscape:window-y="32"
     inkscape:window-maximized="1"
     inkscape:current-layer="svg1" />
  <path
     d="M 213.73923,55.253705 V 3.4e-4 h 12.992 v 55.253365 z"
     fill="currentColor"
     id="path10" />
  <path
     id="path9"
     fill="currentColor"
     d="m 243.66553,0 -14.26172,55.253909 h 12.61914 l 3.29883,-13.775391 h 15.88281 l 3.33008,13.775391 h 12.76758 L 263.04053,0 Z m 9.56055,8.46289 5.32617,22.039066 h -10.60352 z" />
  <path
     d="M 189.03187,43.083032 V 31.883027 H 178.2052 V 21.877689 h 10.82667 V 10.67768 h 10.41601 v 11.200009 h 10.82667 v 10.005338 h -10.82667 v 11.200005 z"
     fill="currentColor"
     id="path7" />
  <path
     d="m 157.41055,56.037705 q -2.94934,0 -5.74934,-0.410667 -2.76267,-0.410667 -5.33867,-1.306667 V 44.240366 q 2.42667,0.821334 5.15201,1.306667 2.76266,0.448001 5.67467,0.448001 2.98666,0 4.144,-0.858667 1.15733,-0.896001 1.15733,-2.314668 0,-1.120001 -0.59733,-1.680001 -0.59734,-0.597334 -1.792,-0.933334 l -5.63734,-1.344 q -4.48,-1.082668 -6.944,-3.957336 -2.464,-2.912001 -2.464,-7.989337 0,-6.048003 4.40533,-9.669341 4.44267,-3.62134 13.06667,-3.62134 2.65067,0 4.96534,0.29867 2.31467,0.26133 4.33067,0.784 v 10.08001 q -2.05334,-0.56 -4.144,-0.821333 -2.05334,-0.261334 -4.44267,-0.261334 -2.61334,0 -4.06934,0.485334 -1.41866,0.448 -1.97866,1.194667 -0.56001,0.746667 -0.56001,1.568001 0,1.008 0.59734,1.568 0.59733,0.560001 1.82933,0.858667 l 5.63734,1.381334 q 4.592,1.082668 6.98134,3.845336 2.38933,2.762668 2.38933,7.952003 0,6.23467 -4.48,9.856005 -4.48,3.621335 -12.13334,3.621335 z"
     fill="currentColor"
     id="path6" />
  <path
     id="path5"
     fill="currentColor"
     d="m 126.38688,13.62696 c -3.73334,0 -6.89398,0.808 -9.48241,2.42578 -2.58845,1.59289 -4.55444,3.957745 -5.89844,7.093747 -1.31911,3.111113 -1.97852,6.918937 -1.97852,11.423828 0,5.077336 0.69607,9.196532 2.08985,12.357422 1.41866,3.136002 3.64714,5.439758 6.68359,6.908203 3.03644,1.468445 6.96842,2.201172 11.79687,2.201172 1.86667,0 3.64545,-0.111938 5.33789,-0.335938 1.69245,-0.224 3.52206,-0.559811 5.48828,-1.007812 V 44.539065 c -1.59289,0.398223 -3.14779,0.721814 -4.66601,0.970703 -1.51823,0.224 -3.02425,0.335938 -4.51758,0.335938 -2.41422,0 -4.29467,-0.248316 -5.63867,-0.746094 -1.344,-0.522667 -2.28838,-1.405945 -2.83594,-2.650391 -0.42879,-0.974524 -0.6902,-2.232229 -0.7832,-3.771484 h 20.41992 v -3.695313 c 0,-4.654224 -0.61053,-8.561766 -1.83008,-11.722656 -1.19467,-3.185782 -2.97344,-5.589248 -5.33789,-7.207028 -2.36445,-1.61778 -5.31344,-2.42578 -8.84766,-2.42578 z m -0.0371,8.326168 c 0.94578,-1e-6 1.71712,0.260536 2.31446,0.783203 0.62222,0.522666 1.08219,1.481221 1.38086,2.875 0.27401,1.278733 0.42269,3.069731 0.44531,5.375 h -8.54297 c 0.0245,-2.305269 0.18558,-4.096267 0.48242,-5.375 0.34845,-1.393779 0.83286,-2.352334 1.45508,-2.875 0.64711,-0.522667 1.46929,-0.783203 2.46484,-0.783203 z" />
  <path
     id="path4"
     fill="currentColor"
     d="m 69.351731,14.29883 11.08789,40.955079 h 4.144531 L 80.066574,71.67969 h 12.46875 L 108.1779,14.29883 H 95.521652 L 88.941574,42.935549 82.492355,14.29883 Z" />
  <path
     id="path2"
     fill="currentColor"
     d="m 52.861496,13.62696 c -3.733335,0 -6.895929,0.808 -9.484375,2.42578 -2.588445,1.59289 -4.554437,3.957745 -5.898437,7.093747 -1.319112,3.111113 -1.978516,6.918937 -1.978516,11.423828 0,5.077336 0.698018,9.196532 2.091797,12.357422 1.418667,3.136002 3.645194,5.439758 6.68164,6.908203 3.036447,1.468445 6.968429,2.201172 11.796876,2.201172 1.866667,0 3.647398,-0.111938 5.339843,-0.335938 1.692446,-0.224 3.522058,-0.559811 5.488281,-1.007812 V 44.539065 c -1.592889,0.398223 -3.149746,0.721814 -4.667968,0.970703 -1.518224,0.224 -3.024244,0.335938 -4.517578,0.335938 -2.414224,0 -4.292718,-0.248316 -5.636719,-0.746094 -1.344001,-0.522667 -2.290335,-1.405945 -2.837891,-2.650391 -0.428791,-0.974524 -0.688245,-2.232229 -0.78125,-3.771484 h 20.419922 v -3.695313 c 0,-4.654224 -0.610522,-8.561766 -1.830078,-11.722656 -1.194667,-3.185782 -2.973445,-5.589248 -5.337891,-7.207028 -2.364446,-1.61778 -5.313433,-2.42578 -8.847656,-2.42578 z m -0.03906,8.326168 c 0.945778,-1e-6 1.719073,0.260536 2.316406,0.783203 0.622223,0.522666 1.082193,1.481221 1.380859,2.875 0.274014,1.278733 0.422695,3.069731 0.445313,5.375 h -8.542971 c 0.0245,-2.305269 0.18362,-4.096267 0.480469,-5.375 0.348444,-1.393779 0.834808,-2.352334 1.457031,-2.875 0.647111,-0.522667 1.467335,-0.783203 2.462891,-0.783203 z" />
  <path
     d="M 0,55.253705 V 3.4e-4 h 12.992007 v 43.754693 h 21.130676 v 11.498672 z"
     fill="currentColor"
     id="path1" />
</svg>
